<?xml version="1.0" encoding="utf-8"?>
<!-- Generator: Adobe Illustrator 23.0.1, SVG Export Plug-In . SVG Version: 6.00 Build 0)  -->
<svg version="1.1" id="Layer_1" xmlns="http://www.w3.org/2000/svg" xmlns:xlink="http://www.w3.org/1999/xlink" x="0px" y="0px"
	 viewBox="0 0 3.4 2.5" style="enable-background:new 0 0 3.4 2.5;" xml:space="preserve">
<style type="text/css">
	.st0{fill-rule:evenodd;clip-rule:evenodd;fill:#FFFFFF;}
</style>
<path class="st0" d="M2,0.3c0.4,0.2,0.6,0.6,0.6,1c0,0.6-0.5,1.2-1.2,1.2S0.3,2,0.3,1.3c0-0.4,0.2-0.8,0.6-1L1,0.4
	C0.7,0.6,0.4,0.9,0.4,1.3c0,0.6,0.5,1.1,1.1,1.1s1.1-0.5,1.1-1.1C2.5,0.9,2.3,0.6,2,0.3C2,0.4,2,0.3,2,0.3z M1.5,0.1v1.5l0.4-0.5
	L2,1.2L1.5,1.8L1,1.2l0.1-0.1l0.4,0.5V0.1H1.5z"/>
</svg>
